/* XPM */
static char *_5ba1bc2ad454feaf1c4f2f7d6507439hKRixnDZRkjDxrHD[] = {
/* columns rows colors chars-per-pixel */
"40 40 3 1 ",
"  c black",
". c #FFC90E",
"X c #FFF200",
/* pixels */
"                                        ",
"                                        ",
"                                        ",
"                                        ",
"                                        ",
"                                        ",
"                XXXXXXX                 ",
"             XXXXXXXXXXXXX              ",
"           XXXXXXXXXXXXXXXXX            ",
"          XXXXXXXXXXXXXXXXXXX           ",
"         XXXXXXXXXXXXXXXXXXXXX          ",
"        XXXXXXXXXXXXXXXXXXXXXXX         ",
"       XXXXXXXXXXX...XXXXXXXXXXX        ",
"       XXXXXXXXXX.....XXXXXXXXXX        ",
"      XXXXXXXXXXX.....XXXXXXXXXXX       ",
"      XXXXXXXXXXX.....XXXXXXXXXXX       ",
"      XXXXXXXXXXX.....XXXXXXXXXXXX      ",
"     XXXXXXXXXXXX.....XXXXXXXXXXXX      ",
"     XXXXXXXXXXXX.....XXXXXXXXXXXX      ",
"     XXXXXXXXXXXX.....XXXXXXXXXXXX      ",
"     XXXXXXXXXXXX.....XXXXXXXXXXXX      ",
"     XXXXXXXXXXXX.....XXXXXXXXXXXX      ",
"     XXXXXXXXXXXX.....XXXXXXXXXXXX      ",
"      XXXXXXXXXXX.....XXXXXXXXXXXX      ",
"      XXXXXXXXXXX.....XXXXXXXXXXX       ",
"      XXXXXXXXXXX.....XXXXXXXXXXX       ",
"       XXXXXXXXXX.....XXXXXXXXXX        ",
"       XXXXXXXXXX.....XXXXXXXXXX        ",
"        XXXXXXXXXX...XXXXXXXXXX         ",
"         XXXXXXXXXXXXXXXXXXXXX          ",
"          XXXXXXXXXXXXXXXXXXX           ",
"           XXXXXXXXXXXXXXXXX            ",
"             XXXXXXXXXXXXX              ",
"                XXXXXXX                 ",
"                                        ",
"                                        ",
"                                        ",
"                                        ",
"                                        ",
"                                        "
};
