/* XPM */
static char *_0aaeeca476c4f9fba2af1b65287fd16sQML16WoRDCiJvbx[] = {
/* columns rows colors chars-per-pixel */
"40 40 10 1 ",
"  c black",
". c #ED1C24",
"X c #22B14C",
"o c #B5E61D",
"O c #FFC90E",
"+ c #FFF200",
"@ c #3F48CC",
"# c #A349A4",
"$ c #FFAEC9",
"% c #99D9EA",
/* pixels */
".  #XXXXXXX. .@@O$$#$OX@OOO###O .....X#@",
".$$#       . .@O ## O$X@o##oo...$O    # ",
".  #       ..@ ##  O  o@#$..Ooo $O    #X",
"..#        .X##XXXXoooX#..$$O. o O    # ",
"#.#....    X#@   ooO.X#@X  O $. oO    # ",
"###    .. ##@  oo... #X@ XXX  .$$oO   # ",
"#.#  %%%X#%%@$o$.$$O# X@O   XX$. oO   # ",
"##X##########o%%%%%#%%X@O$$$  XX$$o$$ # ",
"##X  ###$O%@ ###..#+OOX@O       XXo  $#$",
"##X#####O.@@@@@@##@@  X@%%OO %%%%%Xo  #$",
"### #$X#O.@ o O#+.##@@@@%%%%%O   .OoX#%%",
"#.X # X#O@@o  O#   %##X @@ +%%O  .Oo #.#",
"#.X# XOO#@o   #    %.X##  @@ $%%% .o ##X",
"#.X# XO #@   O#   .%+X++#.  @ $+O%%o.##@",
"#.X#OXO #@  O+#O+.%+$X. +#..O@oooo.%##O@",
"#.X#OX  #. O++#O.O%OOXO.OO# o @ Oo.## X@",
"# X#XO %#.O+@@#@@% $ X  .+o##. @$## #X@X",
"# X#X  @#.+$@$#O@@@@@@@@@o  +#.@#+o.#@X ",
"#  #XO #@O$ @+# .%$  Xoo @@@@###@ O#o@X ",
"# O#XOo#@$+@+O# %$$  Xo$$$ . ## @XX#@ X%",
"# O#X @#@ +@O+##%$   oX$$OO # +#X@O#oX%%",
"#O #X$#O@$$@$$$#%$$oo$XOO+## .+X###@.X%$",
"#O$#XO#.@ O@  +#% o   X $#.$$$X$$.#o.X  ",
"#O X##@@.O @  +.oo  OOX##.$$$X$. #@#%X X",
"#O X##@@.O$$@$$o%%OO$$#.$ $+X   #O@o#XX ",
"#OOX##o@. OO@oo+.%%.##X+  $ X  @#o@X#X  ",
"#O X#@o@.   @XXXXXX#XXXXXXXXXX@#Xo@$ #  ",
"#OXO##o@.  X@ OOO #+%$X++$X  +#%o @.X.#%",
"#%X ##X@.    @ OO#+ $%XXXX+++@#oo @$X.%#",
"#%X#@%#@X    @OO# O+$XXX $@@@# oo@.X.%@ ",
"#OX#@%#@oX    ## $ XXOOX%@OO%#ooO@%X%@  ",
"# X#@%.#o XXX#@XXXX $  X@%%%#o%o@$X @. %",
"# X# @ @#o ##  @  $ $  @%%$$#oo@ $X@ %%$",
"# # %%@@#o#    @@ $ $@@%X$ #ooO@$X@%%$..",
"# #O % @##     @@@@@@$% X ##o @$ @%$..  ",
"# #O %%#. ##@@@   @$%%$  X#o@@%%@$..    ",
"##XO .#@.  o###    @@@@@##@@%%$@X.      ",
"##XO.#%@%% oo  #########o%o%O$@X.      O",
"## X#  @%.o% o  %  $$$%oooX$.@ X.      O",
"## X#  @Oo%%%%o%%%%%%ooo$$.X@ X.      O "
};
