/* XPM */
static char *daaf463f283f4de685f25ab29cc05e60XX28V9g3bCk8bC3h[] = {
/* columns rows colors chars-per-pixel */
"40 40 3 1 ",
"  c black",
". c #00A2E8",
"X c white",
/* pixels */
"                                        ",
"                                        ",
"                                        ",
"                                        ",
"            ................            ",
"           ...................          ",
"          .....................         ",
"         ......................         ",
"         .......................        ",
"         ......            .....        ",
"         ..... XXXXXXXXXXXX ....        ",
"      ........ XXXXXXXXXXXX ....        ",
"     ......... XXXXXXXXXXXX .....       ",
"     ......... XXXXXXXXXXXX .....       ",
"     ......... XXXXXXXXXXXX .....       ",
"     ......... XXXXXXXXXXXX .....       ",
"     ..........            ......       ",
"     ............................       ",
"     ............................       ",
"     ............................       ",
"     ............................       ",
"     ............................       ",
"     ............................       ",
"     ............................       ",
"     ............................       ",
"     ............................       ",
"      ...........................       ",
"        ............ ............       ",
"        ............ ............       ",
"        ............ ............       ",
"        ............ ............       ",
"        ............ ............       ",
"        ............ ............       ",
"        ............ ............       ",
"        ............ ............       ",
"         ..........   ..........        ",
"         ..........   ..........        ",
"          ........      ......          ",
"                                        ",
"                                        "
};
