/* XPM */
static char *_85944e81a614203b8e8e33a6165fdc4PgDnQTf57Zw1V1o1[] = {
/* columns rows colors chars-per-pixel */
"40 40 3 1 ",
"  c black",
". c #00A2E8",
"X c white",
/* pixels */
"                  .....                 ",
"                  .....                 ",
"                 .......                ",
"                 .......                ",
"                 .......                ",
"                .........               ",
"                .........               ",
"                .........               ",
"               ...........              ",
"               .....X.....              ",
"               .....X.....              ",
"              ......X......             ",
"              .....XXX.....             ",
"              .....XXX.....             ",
"           ........XXX........          ",
"        ..........XXXXX..........       ",
"     .............XXXXX.............    ",
"  ...............XXXXXXX............... ",
"...............XXXXXXXXXXX..............",
"............XXXXXXXXXXXXXXXXX...........",
".........XXXXXXXXXXXXXXXXXXXXXXX........",
"............XXXXXXXXXXXXXXXXX...........",
"...............XXXXXXXXXXX..............",
"  ...............XXXXXXX................",
"     .............XXXXX.............    ",
"        ..........XXXXX..........       ",
"           ........XXX........          ",
"              .....XXX.....             ",
"              .....XXX.....             ",
"              ......X......             ",
"               .....X.....              ",
"               .....X.....              ",
"               ...........              ",
"                .........               ",
"                .........               ",
"                .........               ",
"                 .......                ",
"                 .......                ",
"                 .......                ",
"                  ......                "
};
