/* XPM */
static char *_3de887bc4d54bc3ff7d6f6800168d0eviI0P9Z8AnWcu6IV[] = {
/* columns rows colors chars-per-pixel */
"40 40 5 1 ",
"  c black",
". c #B5E61D",
"X c #FFF200",
"o c #00A2E8",
"O c white",
/* pixels */
"XX                 ..              XXXXX",
"XXX                ..             XXXXXX",
"XXXX              ....            XXXXXX",
"XXXXX             ....           XXXXXXX",
"XXXXXX           ......          XXXXXXX",
"XXXXXXX          ......         XXXXXXXX",
"XXXXXXXX        .......        XXXXXXXXX",
"XXXXXXXXX       .......        XXXXXXXXX",
"XXXXXXXXXX     . ...... .     XXXXXXXXXX",
"XXXXXXXXXXX    . ..... ..    XXXXXXXXXXX",
"XXXXXXXXXXXX  ... .... ...   XXXXXXXXXXX",
"XXXXXXXXXXXXX ... .... ...  XXXXXXXXXXXX",
"XXXXXXXXXXXXXX... .... ...  XXXXXXXXXXX ",
"XXXXXXXXXXXXX. ... .. ... .XXXXXXXXXX   ",
"  XXXXXXXXXX... .. .. .. ...XXXXXXX     ",
"    XXXXXXXX....        ....XXXXX       ",
"       XXXX.....   ooo   ....XX         ",
"         XX...  O oo oo O  ..           ",
"          ... OOO oo oo OOO ..          ",
"              OOO oo oo OOO   XX        ",
"        X.....  O oo oo O  .... XX      ",
"      XX......     ooo    ......XXXX    ",
"     XXX..... ....    ... ......XXXXXX  ",
"   XXXX..... .............  .....XXXXXXX",
" XXXXXX...  ................  ...XXXXXXX",
"XXXXXX... .................... ...XXXXXX",
"XXXXXX.. ......................  .XXXXXX",
"XXXXXX  .........................XXXXXXX",
"XXXXX                             XXXXXX",
"XXXXX                               XXXX",
"XXXX................................ XXX",
"XXX                                   XX",
"XX ..................................   ",
"XX....................................  ",
"X                                       ",
" ...................................... ",
" ...................................... ",
"........................................",
"........................................",
"........................................"
};
